#!OML:ASF F:\VICON\USERDATA\INSTALL\rory3\rory3.ASF
:FULLY-SPECIFIED
:DEGREES
3396
root 0.206408 18.7188 2.04703 -4.47502 9.91736 -8.02366
lowerback 5.97476 2.54026 -0.195278
upperback 0.454419 3.28385 -3.05187
thorax -2.70916 1.62502 -3.3073
lowerneck -10.7019 -8.6601 -7.9189
upperneck -1.24283 -11.186 16.8321
head 2.85787 -5.09925 5.68426
rclavicle -2.31584e-014 -4.77083e-015
rhumerus 60.4616 -21.3345 -56.3354
rradius 47.6558
rwrist 1.43933
rhand -62.8812 354.167
rfingers 7.12502
rthumb -34.8902 -32.4147
lclavicle -2.31584e-014 -4.77083e-015
lhumerus -21.8089 -9.47029 73.6438
lradius 61.6038
lwrist -9.39917
lhand -34.3285 18.0598
lfingers 7.12502
lthumb -7.49661 47.9069
rfemur -2.76478 12.9907 17.0721
rtibia 27.6364
rfoot -4.24748 -32.8484
rtoes -8.10915
lfemur -7.0935 -10.0803 -3.92746
ltibia 25.037
lfoot -12.8132 2.3029
ltoes -11.9007
3397
root 0.244026 18.7343 2.03779 -4.46745 10.2757 -8.29788
lowerback 5.94773 2.58273 -0.0744499
upperback 0.428421 3.34836 -3.05911
thorax -2.71001 1.6557 -3.38695
lowerneck -10.5163 -8.70826 -7.68085
upperneck -1.41839 -11.2583 16.6947
head 2.76082 -5.15364 5.60661
rclavicle -4.82053e-014 7.95139e-015
rhumerus 61.1576 -20.9996 -56.3104
rradius 47.4805
rwrist 2.20505
rhand -62.086 353.81
rfingers 7.12502
rthumb -34.1354 -32.9435
lclavicle -4.82053e-014 7.95139e-015
lhumerus -21.5462 -9.35706 73.5923
lradius 61.3704
lwrist -9.36576
lhand -34.2221 17.9393
lfingers 7.12502
lthumb -7.39397 47.7901
rfemur -2.71517 13.0367 17.2522
rtibia 27.4072
rfoot -3.91522 -33.1602
rtoes -7.75165
lfemur -7.32615 -10.212 -3.75873
ltibia 25.0262
lfoot -12.6741 2.18899
ltoes -12.1999
3398
root 0.281 18.749 2.02739 -4.47995 10.5365 -8.62677
lowerback 5.93028 2.64292 0.117977
upperback 0.420826 3.44178 -3.05806
thorax -2.69151 1.70036 -3.50014
lowerneck -10.4265 -8.73744 -7.77128
upperneck -1.44513 -11.2995 16.9119
head 2.7649 -5.1728 5.68731
rclavicle -1.72943e-014 3.18055e-015
rhumerus 61.8454 -20.6366 -56.269
rradius 47.3655
rwrist 2.74119
rhand -61.7021 354.705
rfingers 7.12502
rthumb -33.7707 -32.1294
lclavicle -1.72943e-014 3.18055e-015
lhumerus -21.2978 -9.19585 73.4723
lradius 61.191
lwrist -9.31539
lhand -34.0711 17.9119
lfingers 7.12502
lthumb -7.24815 47.7678
rfemur -2.68079 13.1527 17.4899
rtibia 27.1713
rfoot -3.2443 -33.4072
rtoes -8.04425
lfemur -7.47379 -10.2952 -3.52067
ltibia 24.9755
lfoot -12.5186 2.08208
ltoes -12.1864
3399
root 0.319741 18.7626 2.0166 -4.4979 10.8014 -8.86013
lowerback 5.94962 2.70929 0.219322
upperback 0.42733 3.53707 -3.05444
thorax -2.68398 1.74695 -3.5613
lowerneck -10.3904 -8.75753 -8.0329
upperneck -1.43072 -11.3182 17.2622
head 2.80724 -5.17295 5.83605
rclavicle -1.10325e-014 3.97569e-014
rhumerus 62.5678 -20.2982 -56.0706
rradius 47.2314
rwrist 3.26344
rhand -61.8943 356.185
rfingers 7.12502
rthumb -33.9533 -30.6091
lclavicle -1.10325e-014 3.97569e-014
lhumerus -21.334 -9.00627 73.3819
lradius 61.3249
lwrist -9.28068
lhand -34.0157 17.983
lfingers 7.12502
lthumb -7.19472 47.8407
rfemur -2.60728 13.1763 17.5949
rtibia 26.9236
rfoot -2.66324 -33.5823
rtoes -7.94033
lfemur -7.56493 -10.3592 -3.39527
ltibia 24.865
lfoot -12.3876 1.93166
ltoes -11.6967
3400
root 0.359088 18.7754 2.00788 -4.43427 11.0988 -8.86996
lowerback 5.92611 2.78408 0.146234
upperback 0.429982 3.63053 -3.1249
thorax -2.66233 1.7945 -3.59898
lowerneck -10.5012 -8.83241 -8.05953
upperneck -1.33622 -11.4267 17.3093
head 2.87181 -5.21584 5.83874
rclavicle -1.21259e-014 4.77083e-014
rhumerus 63.2165 -19.9619 -55.6897
rradius 47.0467
rwrist 3.60636
rhand -61.849 356.411
rfingers 7.12502
rthumb -33.9103 -30.3922
lclavicle -1.21259e-014 4.77083e-014
lhumerus -21.3533 -8.81859 73.3139
lradius 61.4208
lwrist -9.36611
lhand -33.9533 18.031
lfingers 7.12502
lthumb -7.13447 47.8907
rfemur -2.56598 13.1523 17.4439
rtibia 26.718
rfoot -2.22051 -33.7316
rtoes -7.78207
lfemur -7.68592 -10.4671 -3.52498
ltibia 24.6933
lfoot -12.2418 1.79431
ltoes -11.1992
3401
root 0.397713 18.7923 1.99941 -4.34462 11.4969 -8.8492
lowerback 5.87906 2.82434 0.0759372
upperback 0.451568 3.67832 -3.23234
thorax -2.60816 1.81976 -3.67087
lowerneck -10.4792 -8.89022 -7.95723
upperneck -1.43936 -11.504 17.3066
head 2.84138 -5.25854 5.81646
rclavicle -3.27001e-014 -1.90833e-014
rhumerus 63.7053 -19.6367 -55.0834
rradius 46.9037
rwrist 3.77565
rhand -61.8676 356.133
rfingers 7.12502
rthumb -33.9279 -30.6671
lclavicle -3.27001e-014 -1.90833e-014
lhumerus -21.2769 -8.72309 73.2101
lradius 61.475
lwrist -9.44748
lhand -33.8322 18.1091
lfingers 7.12502
lthumb -7.01759 47.9728
rfemur -2.55719 13.0562 17.2638
rtibia 26.5324
rfoot -1.58388 -33.8582
rtoes -8.25244
lfemur -7.82153 -10.7536 -3.69135
ltibia 24.4725
lfoot -12.0779 1.71771
ltoes -10.6752
3402
root 0.434492 18.8067 1.99235 -4.32222 11.9087 -8.82158
lowerback 5.91576 2.85508 -0.0607625
upperback 0.440967 3.70706 -3.32186
thorax -2.64062 1.83488 -3.69205
lowerneck -10.198 -8.87204 -7.91152
upperneck -1.68828 -11.468 17.3884
head 2.72146 -5.26115 5.85224
rclavicle -7.95139e-016 9.54166e-015
rhumerus 64.13 -19.2356 -54.4807
rradius 46.8341
rwrist 4.00716
rhand -61.6472 355.362
rfingers 7.12502
rthumb -33.7185 -31.4839
lclavicle -7.95139e-016 9.54166e-015
lhumerus -21.3475 -8.58531 73.1073
lradius 61.5453
lwrist -9.54242
lhand -33.7332 18.2233
lfingers 7.12502
lthumb -6.92207 48.0902
rfemur -2.47046 12.9061 17.0913
rtibia 26.3819
rfoot -1.39315 -34.0174
rtoes -7.722
lfemur -7.85023 -11.0623 -3.86811
ltibia 24.2163
lfoot -11.9305 1.68832
ltoes -10.2048
3403
root 0.470195 18.8189 1.98453 -4.30272 12.1825 -8.90559
lowerback 5.96146 2.91937 -0.0155781
upperback 0.412412 3.79134 -3.43482
thorax -2.67989 1.87549 -3.84505
lowerneck -10.1356 -8.88774 -7.71645
upperneck -1.69717 -11.5097 17.323
head 2.69741 -5.28689 5.79946
rclavicle -5.31749e-014 1.90833e-014
rhumerus 64.6055 -18.8493 -53.9937
rradius 46.6832
rwrist 4.22299
rhand -61.3085 354.98
rfingers 7.12502
rthumb -33.3967 -31.9356
lclavicle -5.31749e-014 1.90833e-014
lhumerus -21.4146 -8.52565 72.9052
lradius 61.5839
lwrist -9.50002
lhand -33.8212 18.2081
lfingers 7.12502
lthumb -7.00696 48.0721
rfemur -2.42708 12.8504 17.0275
rtibia 26.2178
rfoot -1.37027 -34.2525
rtoes -6.46621
lfemur -7.91069 -11.1614 -3.90929
ltibia 24.0014
lfoot -11.7488 1.63349
ltoes -10.5191
3404
root 0.501896 18.8319 1.97489 -4.23216 12.37 -9.05883
lowerback 5.95324 2.98406 0.0160552
upperback 0.388756 3.87825 -3.47296
thorax -2.68938 1.91809 -3.9094
lowerneck -10.2793 -8.91973 -7.65883
upperneck -1.55471 -11.5704 17.2822
head 2.7637 -5.30541 5.76418
rclavicle -5.56597e-015 6.36111e-015
rhumerus 65.1276 -18.3937 -53.468
rradius 46.499
rwrist 4.48993
rhand -61.1801 357.242
rfingers 7.12502
rthumb -33.2746 -29.7003
lclavicle -5.56597e-015 6.36111e-015
lhumerus -21.4201 -8.30125 72.7823
lradius 61.6267
lwrist -9.4808
lhand -33.8987 18.6438
lfingers 7.12502
lthumb -7.08181 48.5053
rfemur -2.51272 13.0575 17.0774
rtibia 26.0797
rfoot -1.21281 -34.6553
rtoes -5.41253
lfemur -8.06142 -11.1552 -3.83061
ltibia 23.8417
lfoot -11.551 1.54999
ltoes -10.7661
3405
root 0.530732 18.8452 1.96827 -4.20659 12.6035 -9.33715
lowerback 5.88644 3.01885 0.090332
upperback 0.383636 3.93194 -3.42852
thorax -2.65188 1.94465 -3.90467
lowerneck -10.2943 -8.96294 -7.73768
upperneck -1.57775 -11.62 17.3565
head 2.7759 -5.32758 5.79457
rclavicle 2.28602e-014 3.18055e-014
rhumerus 65.5278 -17.9057 -52.7077
rradius 46.3701
rwrist 5.14514
rhand -61.1506 358.874
rfingers 7.12502
rthumb -33.2465 -28.0736
lclavicle 2.28602e-014 3.18055e-014
lhumerus -21.4745 -8.01332 72.7489
lradius 61.6592
lwrist -9.34845
lhand -34.1138 18.6542
lfingers 7.12502
lthumb -7.2894 48.5087
rfemur -2.5367 13.2102 17.296
rtibia 25.9266
rfoot -0.928707 -35.0014
rtoes -4.80867
lfemur -8.21036 -11.2658 -3.60789
ltibia 23.7338
lfoot -11.4259 1.4638
ltoes -10.8239
3406
root 0.559985 18.8572 1.96146 -4.24101 12.8396 -9.50289
lowerback 5.91049 3.06888 0.12421
upperback 0.402508 4.00025 -3.46076
thorax -2.63665 1.9787 -3.96295
lowerneck -10.2256 -8.9845 -7.63786
upperneck -1.72026 -11.6422 17.3214
head 2.71686 -5.34798 5.77082
rclavicle 5.12864e-014 -2.54444e-014
rhumerus 65.8747 -17.4947 -51.9205
rradius 46.1776
rwrist 5.80742
rhand -60.906 359.052
rfingers 7.12502
rthumb -33.014 -27.9455
lclavicle 5.12864e-014 -2.54444e-014
lhumerus -21.5612 -7.87831 72.6414
lradius 61.7363
lwrist -9.05569
lhand -34.1704 18.5694
lfingers 7.12502
lthumb -7.34409 48.422
rfemur -2.49229 13.2992 17.3948
rtibia 25.7886
rfoot -0.410621 -35.1889
rtoes -4.37385
lfemur -8.24064 -11.4321 -3.54096
ltibia 23.6355
lfoot -11.3493 1.40193
ltoes -10.8073
